<svg id="visual" viewBox="0 0 960 540" width="960" height="540" xmlns="http://www.w3.org/2000/svg" xmlns:xlink="http://www.w3.org/1999/xlink" version="1.1"><rect width="960" height="540" fill="#001829"></rect><g><g transform="translate(939 535)"><path d="M0 -72.8L56.9 -45.4L71 16.2L31.6 65.6L-31.6 65.6L-71 16.2L-56.9 -45.4Z" stroke="#ff004f" fill="none" stroke-width="3"></path></g><g transform="translate(382 85)"><path d="M0 -64L50 -39.9L62.4 14.2L27.8 57.7L-27.8 57.7L-62.4 14.2L-50 -39.9Z" stroke="#ff004f" fill="none" stroke-width="3"></path></g><g transform="translate(775 349)"><path d="M0 -47L36.7 -29.3L45.8 10.5L20.4 42.3L-20.4 42.3L-45.8 10.5L-36.7 -29.3Z" stroke="#ff004f" fill="none" stroke-width="3"></path></g><g transform="translate(96 134)"><path d="M0 -64L50 -39.9L62.4 14.2L27.8 57.7L-27.8 57.7L-62.4 14.2L-50 -39.9Z" stroke="#ff004f" fill="none" stroke-width="3"></path></g><g transform="translate(824 34)"><path d="M0 -47L36.7 -29.3L45.8 10.5L20.4 42.3L-20.4 42.3L-45.8 10.5L-36.7 -29.3Z" stroke="#ff004f" fill="none" stroke-width="3"></path></g><g transform="translate(522 152)"><path d="M0 -39L30.5 -24.3L38 8.7L16.9 35.1L-16.9 35.1L-38 8.7L-30.5 -24.3Z" stroke="#ff004f" fill="none" stroke-width="3"></path></g><g transform="translate(935 241)"><path d="M0 -69L53.9 -43L67.3 15.4L29.9 62.2L-29.9 62.2L-67.3 15.4L-53.9 -43Z" stroke="#ff004f" fill="none" stroke-width="3"></path></g></g></svg>